# xmcd CD database file
#
# Track frame offsets:
#	150
#	3603
#	33056
#	54432
#	68321
#	73170
#	111857
#	170637
#	208624
#	227493
#
# Disc length: 3498 seconds
#
# Revision: 0
# Processed by: cddbd v1.5.1PL0 Copyright (c) Steve Scherf et al.
# Submitted via: CDex 1.51
#
DISCID=7d0da80a
DTITLE=Steve Lukater - Blues project
DYEAR=2000
DGENRE=Blues
TTITLE0=Introduction
TTITLE1=Smell Yourself
TTITLE2=Texas
TTITLE3=Lukes Band Introduction
TTITLE4=Introduction Luke
TTITLE5=Song For Jeff
TTITLE6=Red House
TTITLE7=Fly Away
TTITLE8=Hate Everything About You
TTITLE9=Chuck Berry Medley
EXTD=YEAR: 2000
EXTT0=
EXTT1=
EXTT2=
EXTT3=
EXTT4=
EXTT5=
EXTT6=
EXTT7=
EXTT8=
EXTT9=
PLAYORDER=
